<svg width="120" height="40" viewBox="0 0 120 40" fill="none" xmlns="http://www.w3.org/2000/svg">
  <g clip-path="url(#clip0_microsoft)">
    <path d="M19.5 19.5H0V0H19.5V19.5Z" fill="#F25022"/>
    <path d="M40.5 19.5H21V0H40.5V19.5Z" fill="#7FBA00"/>
    <path d="M19.5 40.5H0V21H19.5V40.5Z" fill="#00A4EF"/>
    <path d="M40.5 40.5H21V21H40.5V40.5Z" fill="#FFB900"/>
    <path d="M56.2969 18.3281H51.6406V29.7656H48.9844V18.3281H44.3594V16.0156H56.2969V18.3281Z" fill="#737373"/>
    <path d="M57.7031 16.7969C58.0469 16.7969 58.3438 16.9219 58.5938 17.1719C58.8438 17.4219 58.9688 17.7188 58.9688 18.0625C58.9688 18.4062 58.8438 18.7031 58.5938 18.9531C58.3438 19.2031 58.0469 19.3281 57.7031 19.3281C57.3594 19.3281 57.0625 19.2031 56.8125 18.9531C56.5625 18.7031 56.4375 18.4062 56.4375 18.0625C56.4375 17.7188 56.5625 17.4219 56.8125 17.1719C57.0625 16.9219 57.3594 16.7969 57.7031 16.7969ZM59.0156 20.7969V29.7656H56.3906V20.7969H59.0156Z" fill="#737373"/>
    <path d="M67.0781 24.9375C67.0781 23.5 66.7344 22.3594 66.0469 21.5156C65.3594 20.6719 64.4062 20.25 63.1875 20.25C62.5 20.25 61.8906 20.3906 61.3594 20.6719C60.8281 20.9531 60.3906 21.3281 60.0469 21.7969H60V16.0156H57.375V29.7656H59.8125L59.9531 28.3594H60C60.3438 28.8594 60.7969 29.25 61.3594 29.5312C61.9219 29.8125 62.5469 29.9531 63.2344 29.9531C64.4531 29.9531 65.3906 29.5 66.0469 28.5938C66.7344 27.6875 67.0781 26.375 67.0781 24.6562V24.9375ZM64.4062 25.0312C64.4062 26.0312 64.2344 26.7812 63.8906 27.2812C63.5469 27.7812 63.0156 28.0312 62.2969 28.0312C61.7656 28.0312 61.3281 27.9062 60.9844 27.6562C60.6406 27.4062 60.3906 27.0312 60.2344 26.5312V23.2812C60.3906 22.7812 60.6406 22.3906 60.9844 22.1094C61.3281 21.8281 61.75 21.6875 62.25 21.6875C62.9688 21.6875 63.5 21.9375 63.8438 22.4375C64.1875 22.9375 64.3594 23.7188 64.3594 24.7812V25.0312H64.4062Z" fill="#737373"/>
    <path d="M75.9844 29.7656H73.3594V23.9375C73.3594 23.1875 73.2344 22.625 72.9844 22.25C72.7344 21.875 72.3281 21.6875 71.7656 21.6875C71.0156 21.6875 70.4688 21.9375 70.125 22.4375C69.7812 22.9375 69.6094 23.7188 69.6094 24.7812V29.7656H66.9844V20.7969H69.0469L69.3281 22.0156H69.4219C69.7031 21.5781 70.0781 21.2344 70.5469 20.9844C71.0156 20.7344 71.5625 20.6094 72.1875 20.6094C73.2812 20.6094 74.0938 20.9219 74.625 21.5469C75.1562 22.1719 75.4219 23.0781 75.4219 24.2656V29.7656H75.9844Z" fill="#737373"/>
    <path d="M84.9375 29.7656H82.3125V23.9375C82.3125 23.1875 82.1875 22.625 81.9375 22.25C81.6875 21.875 81.2812 21.6875 80.7188 21.6875C79.9688 21.6875 79.4219 21.9375 79.0781 22.4375C78.7344 22.9375 78.5625 23.7188 78.5625 24.7812V29.7656H75.9375V20.7969H78L78.2812 22.0156H78.375C78.6562 21.5781 79.0312 21.2344 79.5 20.9844C79.9688 20.7344 80.5156 20.6094 81.1406 20.6094C82.2344 20.6094 83.0469 20.9219 83.5781 21.5469C84.1094 22.1719 84.375 23.0781 84.375 24.2656V29.7656H84.9375Z" fill="#737373"/>
    <path d="M93.8906 20.6094C94.9844 20.6094 95.8438 20.9531 96.4688 21.6406C97.0938 22.3281 97.4062 23.3125 97.4062 24.5938V26.0938H90.8906C90.9219 26.9062 91.1719 27.5312 91.6406 27.9688C92.1094 28.4062 92.75 28.625 93.5625 28.625C94.2188 28.625 94.8281 28.5625 95.3906 28.4375C95.9531 28.3125 96.5312 28.125 97.125 27.875V29.5C96.5938 29.75 96.0469 29.9375 95.4844 30.0625C94.9219 30.1875 94.2656 30.25 93.5156 30.25C92.4844 30.25 91.5781 30.0625 90.7969 29.6875C90.0156 29.3125 89.4062 28.75 88.9688 28C88.5312 27.25 88.3125 26.3281 88.3125 25.2344C88.3125 24.1406 88.5156 23.1875 88.9219 22.375C89.3281 21.5625 89.8906 20.9375 90.6094 20.5C91.3281 20.0625 92.1562 19.8438 93.0938 19.8438L93.8906 20.6094ZM93.8906 22.1875C93.2656 22.1875 92.75 22.375 92.3438 22.75C91.9375 23.125 91.7031 23.6875 91.6406 24.4375H95.9844C95.9844 23.9062 95.875 23.4688 95.6562 23.125C95.4375 22.7812 95.1562 22.5156 94.8125 22.3438C94.4688 22.1719 94.2031 22.1875 93.8906 22.1875Z" fill="#737373"/>
    <path d="M106.359 20.6094C107.453 20.6094 108.312 20.9531 108.938 21.6406C109.562 22.3281 109.875 23.3125 109.875 24.5938V26.0938H103.359C103.391 26.9062 103.641 27.5312 104.109 27.9688C104.578 28.4062 105.219 28.625 106.031 28.625C106.688 28.625 107.297 28.5625 107.859 28.4375C108.422 28.3125 109 28.125 109.594 27.875V29.5C109.062 29.75 108.516 29.9375 107.953 30.0625C107.391 30.1875 106.734 30.25 105.984 30.25C104.953 30.25 104.047 30.0625 103.266 29.6875C102.484 29.3125 101.875 28.75 101.438 28C101 27.25 100.781 26.3281 100.781 25.2344C100.781 24.1406 100.984 23.1875 101.391 22.375C101.797 21.5625 102.359 20.9375 103.078 20.5C103.797 20.0625 104.625 19.8438 105.562 19.8438L106.359 20.6094ZM106.359 22.1875C105.734 22.1875 105.219 22.375 104.812 22.75C104.406 23.125 104.172 23.6875 104.109 24.4375H108.453C108.453 23.9062 108.344 23.4688 108.125 23.125C107.906 22.7812 107.625 22.5156 107.281 22.3438C106.938 22.1719 106.672 22.1875 106.359 22.1875Z" fill="#737373"/>
    <path d="M119.953 29.7656H117.328V23.9375C117.328 23.1875 117.203 22.625 116.953 22.25C116.703 21.875 116.297 21.6875 115.734 21.6875C114.984 21.6875 114.438 21.9375 114.094 22.4375C113.75 22.9375 113.578 23.7188 113.578 24.7812V29.7656H110.953V16.0156H113.578V19.0625C113.578 19.4062 113.547 20.0312 113.484 20.9375H113.625C113.906 20.5 114.281 20.1562 114.75 19.9062C115.219 19.6562 115.766 19.5312 116.391 19.5312C118.766 19.5312 119.953 21.0156 119.953 24V29.7656Z" fill="#737373"/>
  </g>
  <defs>
    <clipPath id="clip0_microsoft">
      <rect width="120" height="40" fill="white"/>
    </clipPath>
  </defs>
</svg>
